# xmcd
#
# Track frame offsets: 
#        150
#        15867
#        29795
#        36515
#        48862
#        66945
#        84517
#        91521
#        107391
#        119780
#        125957
#        139180
#        151738
#        165719
#        178843
#        189192
#        200603
#
# Disc length: 2774 seconds
#
# Revision: 0
# Processed by: cddbd v1.5.2PL0 Copyright (c) Steve Scherf et al.
# Submitted via: ExactAudioCopy v0.99pb3
#
DISCID=e50ad411
DTITLE=Various Artist - Shoeshine Records Sampler
DYEAR=2001
DGENRE=Shoeshine
TTITLE0=Astro Chimp - Draggin'
TTITLE1=Cheeky Monkey - I Wanna Live With You
TTITLE2=Radio Sweethearts - Don't Make Me Wait
TTITLE3=Speedboat - The Hurtin' Kind
TTITLE4=Ben Vaughn - Ava Gardner Blues
TTITLE5=Michael Shelley - Going To L.A.
TTITLE6=Michael Shelley - Sluggo
TTITLE7=Major Matt Mason USA - Black Hole
TTITLE8=Laura Cantrell - Do You Ever Think Of Me
TTITLE9=Radio Sweethearts - Sweetheart Hoedown
TTITLE10=John Herald - Martha And Me
TTITLE11=Steve Young - Blackland Farmer
TTITLE12=Paul Burch and The WPA Ballclub - Forever Yours
TTITLE13=Paul Burch - Aliceville Rag
TTITLE14=Tim Carroll - Open Flame
TTITLE15=Frank "Jackson" Blake - You Don't Have To Cry
TTITLE16=Nice Man - Fallin In Love
EXTD=
EXTT0=
EXTT1=
EXTT2=
EXTT3=
EXTT4=
EXTT5=
EXTT6=
EXTT7=
EXTT8=
EXTT9=
EXTT10=
EXTT11=
EXTT12=
EXTT13=
EXTT14=
EXTT15=
EXTT16=
PLAYORDER=
